<svg width="146" height="82" viewBox="0 0 146 82" fill="none" xmlns="http://www.w3.org/2000/svg">
<path d="M55.4677 67.5995C74.1348 67.5995 89.2674 52.4668 89.2674 33.7997C89.2674 15.1327 74.1348 0 55.4677 0C36.8006 0 21.668 15.1327 21.668 33.7997C21.668 52.4668 36.8006 67.5995 55.4677 67.5995Z" fill="#D0E4F0"/>
<path fill-rule="evenodd" clip-rule="evenodd" d="M48.156 66.2365L20.3894 66.8357L21.3568 59.4518C21.3568 59.4518 27.9718 54.3634 29.3287 53.685C30.6856 53.0065 35.0956 51.6496 35.0956 51.6496C35.0956 51.6496 37.3006 51.8192 39.6753 52.8369C42.0498 53.8546 50.1914 57.2469 50.1914 57.2469L48.156 66.2365Z" fill="#337CAF"/>
<path fill-rule="evenodd" clip-rule="evenodd" d="M117.504 66.5219H90.2269V53.5179H111.938C111.938 53.5179 117.504 67.1441 117.504 66.5219Z" fill="#337CAF"/>
<path fill-rule="evenodd" clip-rule="evenodd" d="M45.4277 69.2696C45.4277 63.0082 40.3519 57.9324 34.0905 57.9324C27.8292 57.9324 22.7533 63.0082 22.7533 69.2696C22.7533 75.531 27.8292 80.6068 34.0905 80.6068C40.3519 80.6068 45.4277 75.531 45.4277 69.2696Z" fill="#205C8C"/>
<path fill-rule="evenodd" clip-rule="evenodd" d="M40.5156 69.2705C40.5156 65.7216 37.6386 62.8447 34.0898 62.8447C30.5408 62.8447 27.6639 65.7216 27.6639 69.2705C27.6639 72.8194 30.5408 75.6964 34.0898 75.6964C37.6386 75.6964 40.5156 72.8194 40.5156 69.2705Z" fill="#92C1DB"/>
<path fill-rule="evenodd" clip-rule="evenodd" d="M18.0859 23.6856C18.0859 23.6856 7.45799 36.6184 4.89699 45.7097C2.33611 54.801 3.87267 63.2522 4.12875 65.3009C4.38483 67.3497 5.92138 67.7339 7.97015 67.7339H19.7505C20.6468 67.7339 21.6712 66.5815 21.6712 64.1485C21.6712 61.7157 25.3846 55.5694 33.3235 55.5694C41.2625 55.5694 44.3355 59.4108 45.7441 61.8437C47.1526 64.2766 47.7928 67.4778 48.9453 67.4778H50.0977V22.5331L18.0859 23.6856Z" fill="#3D89BA"/>
<path fill-rule="evenodd" clip-rule="evenodd" d="M40.1094 27.023V53.9038C40.1094 53.9038 29.9936 52.7513 26.4084 54.9281C22.823 57.105 20.5181 60.4342 20.3901 61.3305C20.2621 62.2268 9.25 61.3305 9.25 61.3305C9.25 61.3305 9.63415 44.3002 10.2744 41.9954C10.9146 39.6905 19.4938 27.023 19.4938 27.023H40.1094Z" fill="#86C2DE"/>
<path fill-rule="evenodd" clip-rule="evenodd" d="M38.3145 40.8433H15.1379L20.772 29.1909H38.0583L38.3145 40.8433Z" fill="#BDDFF4"/>
<path fill-rule="evenodd" clip-rule="evenodd" d="M38.0586 46.7339H32.5525V45.4535H38.0586V46.7339Z" fill="#286B9E"/>
<path fill-rule="evenodd" clip-rule="evenodd" d="M15.1897 41.4311H17.1333C17.516 41.4311 17.8262 41.1209 17.8262 40.7383V35.2093C17.8262 34.8267 17.516 34.5165 17.1333 34.5165H15.1897C14.8071 34.5165 14.497 34.8267 14.497 35.2093V40.7383C14.497 41.1209 14.8071 41.4311 15.1897 41.4311Z" fill="#286B9E"/>
<path fill-rule="evenodd" clip-rule="evenodd" d="M4.2548 55.248C4.2548 56.6271 4.7421 57.745 5.3432 57.745C5.94429 57.745 6.43164 56.6271 6.43164 55.248C6.43164 53.869 5.94429 52.7511 5.3432 52.7511C4.7421 52.7511 4.2548 53.869 4.2548 55.248Z" fill="#ED6B00"/>
<path fill-rule="evenodd" clip-rule="evenodd" d="M6.17589 48.5918C6.17589 49.6879 6.63452 50.5765 7.20028 50.5765C7.76598 50.5765 8.22461 49.6879 8.22461 48.5918C8.22461 47.4956 7.76598 46.607 7.20028 46.607C6.63452 46.607 6.17589 47.4956 6.17589 48.5918Z" fill="#286B9E"/>
<path fill-rule="evenodd" clip-rule="evenodd" d="M2.71875 66.6061H1.43829V60.0509H2.71875V66.6061Z" fill="#92C1DB"/>
<path fill-rule="evenodd" clip-rule="evenodd" d="M20.3867 66.8359H1.94792V63.3787H20.3867V66.8359Z" fill="#92C1DB"/>
<path fill-rule="evenodd" clip-rule="evenodd" d="M18.4844 27.023H17.1878C17.1878 27.023 13.9226 29.7668 11.4736 33.4643C9.02463 37.1617 8.83255 37.9781 8.83255 37.9781H11.3295L18.4844 27.023Z" fill="#BDDFF4"/>
<path fill-rule="evenodd" clip-rule="evenodd" d="M37.6758 69.2703C37.6758 67.2902 36.0706 65.685 34.0905 65.685C32.1103 65.685 30.5051 67.2902 30.5051 69.2703C30.5051 71.2504 32.1103 72.8556 34.0905 72.8556C36.0706 72.8556 37.6758 71.2504 37.6758 69.2703Z" fill="#5397C2"/>
<path fill-rule="evenodd" clip-rule="evenodd" d="M115.922 69.2696C115.922 63.0082 110.846 57.9324 104.585 57.9324C98.3233 57.9324 93.2475 63.0082 93.2475 69.2696C93.2475 75.531 98.3233 80.6068 104.585 80.6068C110.846 80.6068 115.922 75.531 115.922 69.2696Z" fill="#205C8C"/>
<path fill-rule="evenodd" clip-rule="evenodd" d="M111.012 69.2705C111.012 65.7216 108.135 62.8447 104.586 62.8447C101.037 62.8447 98.16 65.7216 98.16 69.2705C98.16 72.8194 101.037 75.6964 104.586 75.6964C108.135 75.6964 111.012 72.8194 111.012 69.2705Z" fill="#92C1DB"/>
<path fill-rule="evenodd" clip-rule="evenodd" d="M142.014 53.3265C142.014 53.3265 142.527 66.521 142.014 66.521H117.503L111.866 57.2977H96.494L91.8823 66.393H49.4423V22.5818L59.4506 52.2678L142.014 53.3265Z" fill="#86C2DE"/>
<path fill-rule="evenodd" clip-rule="evenodd" d="M145.6 64.8894H144.503V60.5599H145.6V64.8894Z" fill="#ED6B00"/>
<path fill-rule="evenodd" clip-rule="evenodd" d="M144.502 60.5591L142.308 61.4827H142.247V64.369H142.251L144.502 64.8885V60.5591Z" fill="#1581C5"/>
<path fill-rule="evenodd" clip-rule="evenodd" d="M108.17 69.2703C108.17 67.2902 106.565 65.685 104.585 65.685C102.604 65.685 100.999 67.2902 100.999 69.2703C100.999 71.2504 102.604 72.8556 104.585 72.8556C106.565 72.8556 108.17 71.2504 108.17 69.2703Z" fill="#5397C2"/>
<path fill-rule="evenodd" clip-rule="evenodd" d="M78.2945 42.734C80.5805 42.779 82.4044 44.6991 82.3684 47.0247C82.3324 49.3483 80.4501 51.1975 78.1642 51.1525C75.8784 51.1075 74.0545 49.1855 74.0905 46.8618C74.1265 44.5363 76.0088 42.6891 78.2945 42.734Z" fill="#5F6260"/>
<path fill-rule="evenodd" clip-rule="evenodd" d="M69.4154 35.2383C70.7036 34.5235 81.0948 32.3839 81.0948 32.3839C81.0948 32.3839 91.363 23.7831 99.8816 23.4569C108.079 23.142 118.528 23.9952 122.166 24.7224L122.1 24.6624L126.745 25.3644C126.745 25.3644 127.06 25.7778 126.933 26.1826C126.807 26.5873 126.075 27.1838 126.851 28.9102L126.782 28.8481C127.792 30.5693 128.58 32.4368 129.156 33.615C129.398 34.1092 132.514 36.6823 133.626 43.3685C134.4 48.0238 130.78 50.449 130.78 50.449L64.9221 49.1759L63.8593 44.5072C63.8593 44.5072 65.8348 38.6842 66.2082 38.1375C66.5818 37.5888 68.1273 35.953 69.4154 35.2383Z" fill="#FAFAFA"/>
<path fill-rule="evenodd" clip-rule="evenodd" d="M133.062 47.7268C132.191 49.5189 130.776 50.438 130.776 50.438L64.9637 49.2056L64.3219 46.4729L132.596 47.771C132.763 47.7742 132.918 47.7582 133.062 47.7268Z" fill="#92C1DB"/>
<path fill-rule="evenodd" clip-rule="evenodd" d="M68.6865 46.1862C68.674 46.9883 68.024 47.6249 67.2348 47.6094L64.5892 47.5574L63.9043 44.6384L67.2798 44.7048C68.069 44.7203 68.6989 45.384 68.6865 46.1862Z" fill="#3D89BA"/>
<path fill-rule="evenodd" clip-rule="evenodd" d="M66.6956 37.5894C67.9718 36.1983 69.3943 35.8825 69.3943 35.8825C71.4576 36.2944 67.7585 39.3152 67.0253 39.4874C66.2923 39.6576 65.8568 39.2542 65.8568 39.2542L66.0164 38.7742C66.1621 38.3371 66.386 37.9251 66.6956 37.5894Z" fill="#92C1DB"/>
<path fill-rule="evenodd" clip-rule="evenodd" d="M124.412 41.7705C127.538 41.832 130.036 44.4608 129.987 47.6406C129.938 50.8243 127.36 53.3533 124.234 53.2918C121.103 53.2302 118.607 50.6015 118.656 47.4177C118.705 44.2379 121.281 41.7089 124.412 41.7705Z" fill="#205C8C"/>
<path fill-rule="evenodd" clip-rule="evenodd" d="M124.407 43.538C126.668 43.5825 128.475 45.4846 128.439 47.7847C128.404 50.0867 126.539 51.9166 124.278 51.8721C122.013 51.8275 120.207 49.9255 120.243 47.6234C120.278 45.3234 122.142 43.4935 124.407 43.538Z" fill="#3D89BA"/>
<path fill-rule="evenodd" clip-rule="evenodd" d="M120.417 46.9631L123.051 47.459C123.032 47.5411 123.02 47.6234 123.018 47.7098C123.018 47.7707 123.028 47.8358 123.035 47.8948L120.412 48.2873C120.509 48.9042 120.741 49.4766 121.077 49.9705L123.231 48.4666C123.311 48.5919 123.415 48.7001 123.53 48.7947L121.979 50.9275C122.453 51.2905 123.006 51.5509 123.609 51.6767L124.08 49.0629C124.163 49.0842 124.248 49.0937 124.338 49.0955C124.404 49.0968 124.466 49.0901 124.528 49.0815L124.92 51.7241C125.54 51.644 126.119 51.4235 126.619 51.0875L125.111 48.8592C125.236 48.7752 125.348 48.6654 125.438 48.5395L127.592 50.1655C127.965 49.6757 128.232 49.0994 128.355 48.4672L125.674 47.9586C125.682 47.8919 125.694 47.8293 125.695 47.7625C125.696 47.6741 125.686 47.5835 125.672 47.5007L128.392 47.0964C128.303 46.4502 128.067 45.8502 127.716 45.3324L125.425 46.93C125.34 46.8104 125.236 46.7023 125.116 46.6193L126.77 44.3431C126.274 43.9718 125.693 43.7168 125.062 43.6081L124.56 46.3981C124.5 46.3871 124.44 46.3761 124.38 46.375C124.295 46.3733 124.214 46.3815 124.132 46.3976L123.718 43.6032C123.097 43.7089 122.526 43.959 122.035 44.3188L123.591 46.6208C123.477 46.703 123.373 46.8031 123.289 46.9194L121.101 45.2691C120.755 45.7633 120.519 46.3383 120.417 46.9631ZM124.468 43.1464C126.909 43.1945 128.865 45.2548 128.827 47.7376C128.788 50.2264 126.77 52.2085 124.328 52.1605C121.884 52.1124 119.926 50.052 119.965 47.5633C120.003 45.0805 122.023 43.0983 124.468 43.1464Z" fill="#D0E4F0"/>
<path fill-rule="evenodd" clip-rule="evenodd" d="M124.33 45.8938C125.228 45.9114 125.946 46.6662 125.931 47.5815C125.917 48.4948 125.177 49.2209 124.278 49.2032C123.38 49.1855 122.663 48.4308 122.677 47.5175C122.691 46.6022 123.431 45.8761 124.33 45.8938Z" fill="#6DA9CB"/>
<path fill-rule="evenodd" clip-rule="evenodd" d="M127.158 33.2329C128.335 33.2076 128.659 35.0371 128.659 35.0371L79.6583 35.8903L76.9989 35.1961C77.5523 34.5658 82.0587 34.238 82.0587 34.238L127.158 33.2329Z" fill="white"/>
<path fill-rule="evenodd" clip-rule="evenodd" d="M86.1965 37.4599C86.2001 37.815 86.2001 38.1994 86.2004 38.6015C86.2027 41.6202 86.2058 46.1806 87.7333 46.9167C88.2246 47.1519 93.7009 47.2714 112.359 47.2772C112.914 47.2881 113.364 46.8223 113.34 46.2589L112.788 32.7711L87.274 33.5288C87.0487 33.7538 86.1702 34.8095 86.1965 37.4599ZM87.0332 33.0886L87.0956 33.0428L113.23 32.1717L113.269 32.7256L113.83 46.3941C113.86 47.1243 113.292 47.729 112.575 47.7345C107.121 47.7685 100.068 48.0006 96.7742 47.9359C91.1991 47.8263 88.0996 47.634 87.5278 47.3579C85.7244 46.4889 85.7211 42.1148 85.7186 38.5999C85.7183 38.1998 85.718 37.8173 85.7146 37.4641C85.6826 34.1644 86.978 33.1326 87.0332 33.0886Z" fill="#92C1DB"/>
<path fill-rule="evenodd" clip-rule="evenodd" d="M78.2443 41.0634C81.3705 41.1249 83.8683 43.7536 83.819 46.9335C83.7697 50.1172 81.192 52.6461 78.0659 52.5846C74.9352 52.523 72.4389 49.8943 72.4882 46.7106C72.5374 43.5307 75.1136 41.0018 78.2443 41.0634Z" fill="#205C8C"/>
<path fill-rule="evenodd" clip-rule="evenodd" d="M78.2966 42.3416C80.6909 42.3887 82.6042 44.4029 82.5664 46.8384C82.5287 49.2759 80.5542 51.2136 78.1599 51.1665C75.7619 51.1194 73.85 49.1052 73.8877 46.6677C73.9255 44.2322 75.8986 42.2945 78.2966 42.3416Z" fill="#3D89BA"/>
<path fill-rule="evenodd" clip-rule="evenodd" d="M74.155 46.1565L76.789 46.6524C76.7706 46.7345 76.7581 46.8168 76.7567 46.9033C76.7558 46.9641 76.766 47.0292 76.773 47.0883L74.1502 47.4807C74.2473 48.0977 74.4789 48.6701 74.8156 49.164L76.9691 47.66C77.0491 47.7853 77.1531 47.8935 77.2684 47.9881L75.7173 50.1209C76.1912 50.4839 76.7442 50.7443 77.3476 50.8702L77.8181 48.2563C77.9013 48.2776 77.9865 48.2871 78.0763 48.2889C78.1424 48.2902 78.2041 48.2836 78.2659 48.275L78.6585 50.9176C79.2786 50.8374 79.8572 50.6169 80.3575 50.281L78.8499 48.0526C78.9741 47.9686 79.0863 47.8588 79.1765 47.7329L81.3307 49.3589C81.7036 48.8692 81.9703 48.2928 82.0939 47.6606L79.4127 47.152C79.42 47.0853 79.4321 47.0227 79.4332 46.9559C79.4345 46.8675 79.4247 46.7769 79.4104 46.6941L82.1306 46.2898C82.0417 45.6436 81.8056 45.0436 81.4546 44.5258L79.1636 46.1234C79.0787 46.0038 78.9747 45.8957 78.8544 45.8128L80.5086 43.5366C80.0128 43.1653 79.4317 42.9102 78.8006 42.8015L78.2978 45.5916C78.238 45.5806 78.1783 45.5696 78.1184 45.5684C78.0333 45.5667 77.9526 45.5749 77.8704 45.591L77.4562 42.7967C76.8357 42.9024 76.264 43.1524 75.7729 43.5122L77.3289 45.8142C77.2157 45.8964 77.1116 45.9966 77.0277 46.1128L74.8393 44.4625C74.4937 44.9567 74.2569 45.5317 74.155 46.1565ZM78.2063 42.3399C80.6477 42.3879 82.6035 44.4482 82.565 46.9311C82.5265 49.4198 80.5081 51.4019 78.0667 51.3539C75.6223 51.3058 73.6646 49.2455 73.7031 46.7567C73.7415 44.2739 75.7619 42.2918 78.2063 42.3399Z" fill="#D0E4F0"/>
<path fill-rule="evenodd" clip-rule="evenodd" d="M78.2594 45.0893C79.1581 45.107 79.8753 45.8618 79.8611 46.777C79.8469 47.6903 79.1069 48.4165 78.2081 48.3988C77.3094 48.3811 76.5925 47.6263 76.6066 46.713C76.6208 45.7978 77.3606 45.0716 78.2594 45.0893Z" fill="#6DA9CB"/>
<path fill-rule="evenodd" clip-rule="evenodd" d="M130.638 36.7477L131.577 36.7662L132.045 37.6626L132.451 38.6657L130.592 38.5938C130.255 38.5812 129.951 38.379 129.805 38.068C129.512 37.4479 129.963 36.7344 130.638 36.7477Z" fill="#92C1DB"/>
<path fill-rule="evenodd" clip-rule="evenodd" d="M131.367 39.123L132.566 39.1682L132.894 40.0519L133.18 41.0428L131.321 40.971C130.983 40.9565 130.68 40.7542 130.533 40.4432C130.241 39.8231 130.691 39.1097 131.367 39.123Z" fill="#ED6C0D"/>
<path fill-rule="evenodd" clip-rule="evenodd" d="M106.757 35.3569C106.761 35.5216 106.891 35.6514 107.051 35.6546L107.049 35.8015L107.064 35.6548L110.719 35.5738C110.798 35.5715 110.872 35.5396 110.927 35.48C110.982 35.4223 111.011 35.3445 111.009 35.2641L110.999 34.831C110.995 34.6683 110.866 34.5384 110.693 34.535L110.693 34.535L107.037 34.6141C106.958 34.6164 106.883 34.6502 106.829 34.708C106.774 34.7676 106.745 34.8434 106.747 34.9238L106.757 35.3569ZM107.03 34.3221L110.709 34.2415C111.026 34.2477 111.28 34.5035 111.287 34.8249L111.298 35.258C111.302 35.4168 111.245 35.5685 111.137 35.6839C111.099 35.7223 111.052 35.7488 111.007 35.7754L111.082 35.7729C109.069 36.8814 106.831 35.9049 106.831 35.9049L106.85 35.9053C106.632 35.8207 106.475 35.6139 106.468 35.365L106.458 34.9299C106.454 34.7711 106.511 34.6194 106.62 34.506C106.728 34.3906 106.873 34.3249 107.03 34.3221Z" fill="#92C1DB"/>
<path fill-rule="evenodd" clip-rule="evenodd" d="M120.393 25.756C120.393 25.756 122.276 25.8533 124.676 31.7989L83.7832 32.596C83.7832 32.596 92.3649 26.0678 95.7197 25.3341C99.0745 24.6024 106.867 23.8327 120.393 25.756Z" fill="#E3F0F5"/>
<path fill-rule="evenodd" clip-rule="evenodd" d="M120.52 26.0733C120.508 26.0639 120.496 26.0544 120.484 26.0542C120.496 26.0544 120.508 26.0639 120.52 26.0733ZM120.48 26.0449C120.274 25.9395 120.069 25.8341 119.865 25.7287C120.069 25.8341 120.274 25.9395 120.48 26.0449Z" fill="#DAE8E6"/>
<path fill-rule="evenodd" clip-rule="evenodd" d="M124.457 31.6144C122.246 26.2941 120.534 26.0539 120.502 26.0513C115.505 25.3393 110.868 24.9386 106.721 24.8575C100.9 24.7437 97.451 25.2905 95.9132 25.6271C93.1622 26.2285 86.6993 30.8974 84.6824 32.3888L124.457 31.6144ZM95.8086 25.1472C97.367 24.8052 100.858 24.2514 106.728 24.3662C110.895 24.4477 115.552 24.8508 120.547 25.5627C120.755 25.5727 122.653 25.8399 125.043 31.7604C125.073 31.8351 125.065 31.9207 125.021 31.9881C124.977 32.0555 124.903 32.097 124.823 32.0993L83.9299 32.8967L83.9204 32.8966C83.8188 32.8946 83.728 32.8284 83.6946 32.7303C83.6599 32.6302 83.6937 32.5177 83.7778 32.453C84.1294 32.185 92.4404 25.8829 95.8086 25.1472Z" fill="#3D89BA"/>
<path fill-rule="evenodd" clip-rule="evenodd" d="M88.2098 32.6308L84.1942 32.6146L87.9479 29.9052L88.2098 32.6308Z" fill="#3D89BA"/>
<path fill-rule="evenodd" clip-rule="evenodd" d="M88.9971 32.6283L88.6383 30.8861C88.6383 30.8861 89.0963 30.1523 90.1541 30.008C91.2122 29.8638 92.3471 29.9686 92.4537 30.9611C92.5598 31.9556 92.1817 32.7734 91.6541 32.7631C91.1267 32.7527 90.9211 32.9137 90.9211 32.9137L90.0001 34.7113C90.0001 34.7113 87.5895 35.6956 87.8136 34.3382L88.9971 32.6283Z" fill="#3D89BA"/>
<path fill-rule="evenodd" clip-rule="evenodd" d="M112.246 24.8025L113.294 32.0123L109.671 32.1692L109.932 24.5701L112.246 24.8025Z" fill="#3D89BA"/>
<path fill-rule="evenodd" clip-rule="evenodd" d="M66.149 24.7688L66.1686 24.738L66.149 24.7688L65.1728 24.3806L64.8827 24.662L65.1728 24.3806L66.149 24.7688Z" fill="#82939C"/>
<path fill-rule="evenodd" clip-rule="evenodd" d="M70.7252 81.9999C109.774 81.9999 141.459 81.1912 141.459 80.1977C141.459 79.2048 109.774 78.3959 70.7252 78.3959C31.6314 78.3959 0.00038147 79.2048 0.00038147 80.1977C0.00038147 81.1912 31.6314 81.9999 70.7252 81.9999Z" fill="#0059A3" fill-opacity="0.15"/>
</svg>
